# xmcd CD database file
#
# Track frame offsets:
#	150
#	20555
#	37722
#	53852
#	70150
#	81745
#	98945
#	117370
#	132800
#	146835
#	171322
#	192937
#
# Disc length: 2810 seconds
#
# Revision: 2
# Processed by: cddbd v1.5.2PL0 Copyright (c) Steve Scherf et al.
# Submitted via: CDex 1.70beta2
#
DISCID=ac0af80c
DTITLE=Various Artist - 中島みゆき SONG LIBRARY 3
DYEAR=1997
DGENRE=Pop
TTITLE0=すずめ／歌：増田恵子
TTITLE1=FU-JI-TSU／歌：工藤静香
TTITLE2=煙草／歌：古手川祐子
TTITLE3=美貌の都／歌：郷ひろみ
TTITLE4=みにくいあひるの子／歌：研ナオコ
TTITLE5=海と宝石／歌：松坂慶子
TTITLE6=少年たちのように／歌：三田寛子
TTITLE7=命日／歌：日吉ミミ
TTITLE8=帰っておいで／歌：ちあきなおみ
TTITLE9=りばいばる／歌：研ナオコ
TTITLE10=最愛／歌：柏原芳恵
TTITLE11=しあわせ芝居／歌：桜田淳子
EXTD=YEAR: 1997
EXTT0=
EXTT1=
EXTT2=
EXTT3=
EXTT4=
EXTT5=
EXTT6=
EXTT7=
EXTT8=
EXTT9=
EXTT10=
EXTT11=
PLAYORDER=
